<svg width="60" height="60" viewBox="0 0 60 60" fill="none" xmlns="http://www.w3.org/2000/svg">
<g clip-path="url(#clip0_52_393)">
<path d="M45.9375 0H14.0625C6.296 0 0 6.296 0 14.0625V45.9375C0 53.704 6.296 60 14.0625 60H45.9375C53.704 60 60 53.704 60 45.9375V14.0625C60 6.296 53.704 0 45.9375 0Z" fill="#0277BD"/>
<path d="M12.5984 24.0588L13.2691 31.5452H30.0225V24.0588H12.5984ZM30.0223 8.90625H11.25L11.9306 16.3927H30.0223V8.90625ZM30.0223 51.2909V43.5019L29.9895 43.5105L21.6518 41.2594L21.1188 35.2884H13.6036L14.6524 47.0433L29.9878 51.3005L30.0223 51.2909Z" fill="#EBEBEB"/>
<path d="M39.2153 31.5452L38.3462 41.2545L29.9966 43.5082V51.2967L45.3442 47.0433L45.4567 45.7784L47.2159 26.0693L47.3985 24.0588L48.7501 8.90625H29.9966V16.3927H40.5456L39.8645 24.0588H29.9966V31.5452H39.2153Z" fill="white"/>
</g>
<defs>
<clipPath id="clip0_52_393">
<rect width="60" height="60" fill="white"/>
</clipPath>
</defs>
</svg>
