<svg id="visual" viewBox="0 0 600 900" width="600" height="900" xmlns="http://www.w3.org/2000/svg" xmlns:xlink="http://www.w3.org/1999/xlink" version="1.1"><rect width="600" height="900" fill="#23022E"></rect><g><g transform="translate(507 459)"><path d="M84.5 -69.8C103.6 -43.4 109.2 -8.6 102.8 25.1C96.4 58.7 78 91.3 49.9 105.7C21.7 120.1 -16.2 116.3 -49.7 101C-83.1 85.7 -112 58.9 -119.5 27C-127.1 -5 -113.2 -42.1 -89.7 -69.5C-66.2 -96.9 -33.1 -114.6 -0.2 -114.4C32.7 -114.2 65.3 -96.2 84.5 -69.8Z" fill="none" stroke="#4E6766" stroke-width="7"></path></g><g transform="translate(84 588)"><path d="M90.7 -70.3C113.5 -43.8 125.1 -6.3 117.9 27.5C110.6 61.2 84.5 91.2 52.8 104.6C21.1 117.9 -16.3 114.6 -45.3 98.8C-74.3 83 -94.9 54.7 -100.6 24.5C-106.2 -5.7 -96.9 -37.7 -77.6 -63.5C-58.3 -89.3 -29.2 -108.8 2.4 -110.7C34 -112.6 67.9 -96.9 90.7 -70.3Z" fill="none" stroke="#4E6766" stroke-width="7"></path></g><g transform="translate(348 204)"><path d="M79.1 -62.3C97.3 -40.3 103.2 -7.7 97.5 24.3C91.9 56.3 74.6 87.8 47.9 101.4C21.1 115.1 -15.2 111 -43.2 95.3C-71.3 79.7 -91.1 52.5 -98.8 21.7C-106.4 -9.1 -102 -43.4 -83.5 -65.5C-65 -87.6 -32.5 -97.4 -1 -96.6C30.5 -95.8 60.9 -84.3 79.1 -62.3Z" fill="none" stroke="#4E6766" stroke-width="7"></path></g><g transform="translate(530 846)"><path d="M66.7 -51.5C82.9 -32.9 90 -5.4 83.7 17.8C77.3 40.9 57.6 59.7 35.5 68.1C13.5 76.5 -10.8 74.6 -33 65.2C-55.2 55.8 -75.4 38.8 -80 18.4C-84.6 -2.1 -73.5 -25.9 -57.6 -44.5C-41.7 -63 -20.8 -76.1 2.2 -77.9C25.3 -79.6 50.5 -70 66.7 -51.5Z" fill="none" stroke="#4E6766" stroke-width="7"></path></g></g></svg>