<svg id="visual" viewBox="0 0 600 900" width="600" height="900" xmlns="http://www.w3.org/2000/svg" xmlns:xlink="http://www.w3.org/1999/xlink" version="1.1"><rect x="0" y="0" width="600" height="900" fill="#a24936"></rect><defs><linearGradient id="grad1_0" x1="0%" y1="0%" x2="100%" y2="100%"><stop offset="30%" stop-color="#f1a737" stop-opacity="1"></stop><stop offset="70%" stop-color="#f1a737" stop-opacity="1"></stop></linearGradient></defs><defs><linearGradient id="grad1_1" x1="0%" y1="0%" x2="100%" y2="100%"><stop offset="30%" stop-color="#f1a737" stop-opacity="1"></stop><stop offset="70%" stop-color="#cf7438" stop-opacity="1"></stop></linearGradient></defs><defs><linearGradient id="grad1_2" x1="0%" y1="0%" x2="100%" y2="100%"><stop offset="30%" stop-color="#a24936" stop-opacity="1"></stop><stop offset="70%" stop-color="#cf7438" stop-opacity="1"></stop></linearGradient></defs><defs><linearGradient id="grad2_0" x1="0%" y1="0%" x2="100%" y2="100%"><stop offset="30%" stop-color="#f1a737" stop-opacity="1"></stop><stop offset="70%" stop-color="#f1a737" stop-opacity="1"></stop></linearGradient></defs><defs><linearGradient id="grad2_1" x1="0%" y1="0%" x2="100%" y2="100%"><stop offset="30%" stop-color="#cf7438" stop-opacity="1"></stop><stop offset="70%" stop-color="#f1a737" stop-opacity="1"></stop></linearGradient></defs><defs><linearGradient id="grad2_2" x1="0%" y1="0%" x2="100%" y2="100%"><stop offset="30%" stop-color="#cf7438" stop-opacity="1"></stop><stop offset="70%" stop-color="#a24936" stop-opacity="1"></stop></linearGradient></defs><g transform="translate(600, 0)"><path d="M0 486.7C-38.6 459.1 -77.2 431.5 -109.2 407.6C-141.2 383.8 -166.5 363.7 -204 353.3C-241.5 343 -291.1 342.4 -321 321C-351 299.6 -361.3 257.4 -386.2 223C-411.2 188.6 -451 161.9 -470.2 126C-489.4 90.1 -488.1 45.1 -486.7 0L0 0Z" fill="#ba5e38"></path><path d="M0 324.5C-25.7 306.1 -51.5 287.7 -72.8 271.7C-94.1 255.8 -111 242.4 -136 235.6C-161 228.7 -194.1 228.3 -214 214C-234 199.8 -240.8 171.6 -257.5 148.7C-274.2 125.7 -300.6 107.9 -313.4 84C-326.2 60.1 -325.4 30 -324.5 0L0 0Z" fill="#e28d38"></path><path d="M0 162.2C-12.9 153 -25.7 143.8 -36.4 135.9C-47.1 127.9 -55.5 121.2 -68 117.8C-80.5 114.3 -97 114.1 -107 107C-117 99.9 -120.4 85.8 -128.7 74.3C-137.1 62.9 -150.3 54 -156.7 42C-163.1 30 -162.7 15 -162.2 0L0 0Z" fill="#f1a737"></path></g><g transform="translate(0, 900)"><path d="M0 -486.7C38.7 -467.5 77.4 -448.3 116.2 -433.7C155 -419.1 193.9 -409.2 220.5 -381.9C247.1 -354.6 261.5 -309.8 275.8 -275.8C290 -241.7 304.1 -218.3 342.1 -197.5C380.1 -176.7 442.1 -158.5 470.2 -126C498.3 -93.5 492.5 -46.7 486.7 0L0 0Z" fill="#ba5e38"></path><path d="M0 -324.5C25.8 -311.7 51.6 -298.8 77.5 -289.1C103.3 -279.4 129.2 -272.8 147 -254.6C164.8 -236.4 174.4 -206.6 183.8 -183.8C193.3 -161.1 202.7 -145.5 228.1 -131.7C253.4 -117.8 294.7 -105.6 313.4 -84C332.2 -62.3 328.3 -31.2 324.5 0L0 0Z" fill="#e28d38"></path><path d="M0 -162.2C12.9 -155.8 25.8 -149.4 38.7 -144.6C51.7 -139.7 64.6 -136.4 73.5 -127.3C82.4 -118.2 87.2 -103.3 91.9 -91.9C96.7 -80.6 101.4 -72.8 114 -65.8C126.7 -58.9 147.4 -52.8 156.7 -42C166.1 -31.2 164.2 -15.6 162.2 0L0 0Z" fill="#f1a737"></path></g></svg>