<svg id="visual" viewBox="0 0 600 900" width="600" height="900" xmlns="http://www.w3.org/2000/svg" xmlns:xlink="http://www.w3.org/1999/xlink" version="1.1"><path d="M0 208L9.2 194.5C18.3 181 36.7 154 54.8 134.5C73 115 91 103 109.2 94C127.3 85 145.7 79 163.8 98.5C182 118 200 163 218.2 191.5C236.3 220 254.7 232 272.8 220C291 208 309 172 327.2 167.5C345.3 163 363.7 190 381.8 188.5C400 187 418 157 436.2 149.5C454.3 142 472.7 157 490.8 160C509 163 527 154 545.2 143.5C563.3 133 581.7 121 590.8 115L600 109L600 0L590.8 0C581.7 0 563.3 0 545.2 0C527 0 509 0 490.8 0C472.7 0 454.3 0 436.2 0C418 0 400 0 381.8 0C363.7 0 345.3 0 327.2 0C309 0 291 0 272.8 0C254.7 0 236.3 0 218.2 0C200 0 182 0 163.8 0C145.7 0 127.3 0 109.2 0C91 0 73 0 54.8 0C36.7 0 18.3 0 9.2 0L0 0Z" fill="#748a89"></path><path d="M0 352L9.2 374.5C18.3 397 36.7 442 54.8 467.5C73 493 91 499 109.2 475C127.3 451 145.7 397 163.8 388C182 379 200 415 218.2 448C236.3 481 254.7 511 272.8 506.5C291 502 309 463 327.2 434.5C345.3 406 363.7 388 381.8 374.5C400 361 418 352 436.2 350.5C454.3 349 472.7 355 490.8 347.5C509 340 527 319 545.2 335.5C563.3 352 581.7 406 590.8 433L600 460L600 107L590.8 113C581.7 119 563.3 131 545.2 141.5C527 152 509 161 490.8 158C472.7 155 454.3 140 436.2 147.5C418 155 400 185 381.8 186.5C363.7 188 345.3 161 327.2 165.5C309 170 291 206 272.8 218C254.7 230 236.3 218 218.2 189.5C200 161 182 116 163.8 96.5C145.7 77 127.3 83 109.2 92C91 101 73 113 54.8 132.5C36.7 152 18.3 179 9.2 192.5L0 206Z" fill="#617877"></path><path d="M0 496L9.2 514C18.3 532 36.7 568 54.8 578.5C73 589 91 574 109.2 554.5C127.3 535 145.7 511 163.8 503.5C182 496 200 505 218.2 535C236.3 565 254.7 616 272.8 614.5C291 613 309 559 327.2 527.5C345.3 496 363.7 487 381.8 472C400 457 418 436 436.2 436C454.3 436 472.7 457 490.8 460C509 463 527 448 545.2 467.5C563.3 487 581.7 541 590.8 568L600 595L600 458L590.8 431C581.7 404 563.3 350 545.2 333.5C527 317 509 338 490.8 345.5C472.7 353 454.3 347 436.2 348.5C418 350 400 359 381.8 372.5C363.7 386 345.3 404 327.2 432.5C309 461 291 500 272.8 504.5C254.7 509 236.3 479 218.2 446C200 413 182 377 163.8 386C145.7 395 127.3 449 109.2 473C91 497 73 491 54.8 465.5C36.7 440 18.3 395 9.2 372.5L0 350Z" fill="#4e6766"></path><path d="M0 676L9.2 674.5C18.3 673 36.7 670 54.8 670C73 670 91 673 109.2 673C127.3 673 145.7 670 163.8 674.5C182 679 200 691 218.2 707.5C236.3 724 254.7 745 272.8 739C291 733 309 700 327.2 674.5C345.3 649 363.7 631 381.8 607C400 583 418 553 436.2 541C454.3 529 472.7 535 490.8 548.5C509 562 527 583 545.2 614.5C563.3 646 581.7 688 590.8 709L600 730L600 593L590.8 566C581.7 539 563.3 485 545.2 465.5C527 446 509 461 490.8 458C472.7 455 454.3 434 436.2 434C418 434 400 455 381.8 470C363.7 485 345.3 494 327.2 525.5C309 557 291 611 272.8 612.5C254.7 614 236.3 563 218.2 533C200 503 182 494 163.8 501.5C145.7 509 127.3 533 109.2 552.5C91 572 73 587 54.8 576.5C36.7 566 18.3 530 9.2 512L0 494Z" fill="#435958"></path><path d="M0 901L9.2 901C18.3 901 36.7 901 54.8 901C73 901 91 901 109.2 901C127.3 901 145.7 901 163.8 901C182 901 200 901 218.2 901C236.3 901 254.7 901 272.8 901C291 901 309 901 327.2 901C345.3 901 363.7 901 381.8 901C400 901 418 901 436.2 901C454.3 901 472.7 901 490.8 901C509 901 527 901 545.2 901C563.3 901 581.7 901 590.8 901L600 901L600 728L590.8 707C581.7 686 563.3 644 545.2 612.5C527 581 509 560 490.8 546.5C472.7 533 454.3 527 436.2 539C418 551 400 581 381.8 605C363.7 629 345.3 647 327.2 672.5C309 698 291 731 272.8 737C254.7 743 236.3 722 218.2 705.5C200 689 182 677 163.8 672.5C145.7 668 127.3 671 109.2 671C91 671 73 668 54.8 668C36.7 668 18.3 671 9.2 672.5L0 674Z" fill="#394c4b"></path></svg>