<svg id="visual" viewBox="0 0 3840 2160" width="3840" height="2160" xmlns="http://www.w3.org/2000/svg" xmlns:xlink="http://www.w3.org/1999/xlink" version="1.1"><rect x="0" y="0" width="3840" height="2160" fill="#837c6b"></rect><defs><linearGradient id="grad1_0" x1="43.8%" y1="0%" x2="100%" y2="100%"><stop offset="14.444444444444446%" stop-color="#2d2117" stop-opacity="1"></stop><stop offset="85.55555555555554%" stop-color="#2d2117" stop-opacity="1"></stop></linearGradient></defs><defs><linearGradient id="grad1_1" x1="43.8%" y1="0%" x2="100%" y2="100%"><stop offset="14.444444444444446%" stop-color="#2d2117" stop-opacity="1"></stop><stop offset="85.55555555555554%" stop-color="#837c6b" stop-opacity="1"></stop></linearGradient></defs><defs><linearGradient id="grad2_0" x1="0%" y1="0%" x2="56.3%" y2="100%"><stop offset="14.444444444444446%" stop-color="#2d2117" stop-opacity="1"></stop><stop offset="85.55555555555554%" stop-color="#2d2117" stop-opacity="1"></stop></linearGradient></defs><defs><linearGradient id="grad2_1" x1="0%" y1="0%" x2="56.3%" y2="100%"><stop offset="14.444444444444446%" stop-color="#837c6b" stop-opacity="1"></stop><stop offset="85.55555555555554%" stop-color="#2d2117" stop-opacity="1"></stop></linearGradient></defs><g transform="translate(3840, 0)"><path d="M0 1944C-191.4 1784.4 -382.8 1624.8 -646.7 1561.4C-910.7 1497.9 -1247.3 1530.7 -1374.6 1374.6C-1501.9 1218.5 -1420 873.6 -1480.1 613.1C-1540.1 352.5 -1742 176.2 -1944 0L0 0Z" fill="#574c3e"></path><path d="M0 972C-95.7 892.2 -191.4 812.4 -323.4 780.7C-455.4 749 -623.6 765.3 -687.3 687.3C-751 609.3 -710 436.8 -740 306.5C-770 176.2 -871 88.1 -972 0L0 0Z" fill="#2d2117"></path></g><g transform="translate(0, 2160)"><path d="M0 -1944C187.1 -1776.9 374.1 -1609.7 641.4 -1548.4C908.6 -1487.1 1256.1 -1531.7 1374.6 -1374.6C1493.1 -1217.6 1382.7 -858.9 1439.4 -596.2C1496.1 -333.5 1720.1 -166.8 1944 0L0 0Z" fill="#574c3e"></path><path d="M0 -972C93.5 -888.4 187.1 -804.9 320.7 -774.2C454.3 -743.6 628.1 -765.8 687.3 -687.3C746.6 -608.8 691.3 -429.5 719.7 -298.1C748.1 -166.8 860 -83.4 972 0L0 0Z" fill="#2d2117"></path></g></svg>