<svg width="60" height="60" viewBox="0 0 60 60" fill="none" xmlns="http://www.w3.org/2000/svg">
<g clip-path="url(#clip0_52_402)">
<path d="M45.9375 0H14.0625C6.296 0 0 6.296 0 14.0625V45.9375C0 53.704 6.296 60 14.0625 60H45.9375C53.704 60 60 53.704 60 45.9375V14.0625C60 6.296 53.704 0 45.9375 0Z" fill="#F03C2E"/>
<mask id="mask0_52_402" style="mask-type:luminance" maskUnits="userSpaceOnUse" x="6" y="6" width="48" height="48">
<path d="M6.5625 6.5625H53.4375V53.4375H6.5625V6.5625Z" fill="white"/>
</mask>
<g mask="url(#mask0_52_402)">
<path d="M52.5528 27.9127L32.0874 7.44727C31.6655 7.02486 31.1276 6.73717 30.5421 6.62063C29.9565 6.5041 29.3495 6.56397 28.798 6.79266C28.4319 6.94459 28.0993 7.16701 27.819 7.44727L23.5709 11.6953L28.9616 17.0859C30.2155 16.6465 31.651 16.9467 32.6499 17.9459C33.1255 18.4222 33.4575 19.0228 33.608 19.6789C33.7585 20.335 33.7214 21.0202 33.5009 21.6563L38.6968 26.8521C39.9538 26.4185 41.4038 26.6981 42.4072 27.7045C42.9098 28.2069 43.2521 28.8471 43.3907 29.5441C43.5292 30.2411 43.4578 30.9636 43.1855 31.62C42.8206 32.5001 42.1211 33.1992 41.2408 33.5637C40.3605 33.9282 39.3715 33.9282 38.4913 33.5637C38.0553 33.383 37.6592 33.1184 37.3257 32.7846C36.271 31.7299 36.0104 30.1772 36.5436 28.8778L31.6979 24.0321V36.7838C32.0497 36.9578 32.3711 37.1873 32.6499 37.4634C33.3236 38.1371 33.702 39.0508 33.702 40.0035C33.702 40.9562 33.3236 41.8699 32.6499 42.5435C31.9763 43.2172 31.0626 43.5956 30.1099 43.5956C29.1572 43.5956 28.2435 43.2172 27.5698 42.5435C27.0671 42.0413 26.7247 41.4013 26.5859 40.7043C26.4471 40.0074 26.5183 39.285 26.7903 38.6285C26.971 38.1927 27.2359 37.7967 27.5698 37.4634C27.917 37.1177 28.3023 36.8555 28.7462 36.6797V23.8095C28.3057 23.6295 27.9057 23.3631 27.5698 23.0259C27.0655 22.5221 26.7226 21.8795 26.5848 21.1801C26.4471 20.4806 26.5207 19.756 26.7964 19.0985L21.4791 13.7845L7.44594 27.803C7.02348 28.2251 6.73574 28.7631 6.61913 29.3489C6.50252 29.9346 6.56229 30.5418 6.79086 31.0936C6.94287 31.4599 7.16546 31.7927 7.44594 32.0731L27.9127 52.5368C28.193 52.8171 28.5256 53.0395 28.8917 53.1914C29.6315 53.4973 30.4624 53.4973 31.2022 53.1914C31.5683 53.0395 31.9009 52.8171 32.1812 52.5368L52.5528 32.1975C52.8333 31.9172 53.0559 31.5844 53.2077 31.2181C53.3596 30.8518 53.4378 30.4591 53.4378 30.0626C53.4378 29.666 53.3596 29.2733 53.2078 28.907C53.0559 28.5406 52.8334 28.2077 52.5528 27.9274" fill="white"/>
</g>
</g>
<defs>
<clipPath id="clip0_52_402">
<rect width="60" height="60" fill="white"/>
</clipPath>
</defs>
</svg>
