<svg width="60" height="60" viewBox="0 0 60 60" fill="none" xmlns="http://www.w3.org/2000/svg">
<g clip-path="url(#clip0_52_388)">
<path d="M45.9375 0H14.0625C6.296 0 0 6.296 0 14.0625V45.9375C0 53.704 6.296 60 14.0625 60H45.9375C53.704 60 60 53.704 60 45.9375V14.0625C60 6.296 53.704 0 45.9375 0Z" fill="#E14E1D"/>
<path d="M11.25 8.90625L13.268 31.5452H39.2156L38.3449 41.2554L29.9904 43.5143L21.6516 41.2587L21.094 35.0238H13.5797L14.6543 47.0428L29.9888 51.3019L45.3427 47.0428L47.4012 24.0598H20.115L19.4299 16.3934H48.0795L48.75 8.90625H11.25Z" fill="white"/>
<path d="M30 8.90625H11.25L13.268 31.5452H30V24.0598H20.115L19.4299 16.3934H30V8.90625ZM30 43.511L29.9904 43.5143L21.6516 41.2587L21.094 35.0238H13.5797L14.6543 47.0428L29.9888 51.3019L30.0002 51.2986L30 43.511Z" fill="#EBEBEB"/>
</g>
<defs>
<clipPath id="clip0_52_388">
<rect width="60" height="60" fill="white"/>
</clipPath>
</defs>
</svg>
