<svg width="60" height="60" viewBox="0 0 60 60" fill="none" xmlns="http://www.w3.org/2000/svg">
<g clip-path="url(#clip0_52_398)">
<path d="M45.9375 0H14.0625C6.296 0 0 6.296 0 14.0625V45.9375C0 53.704 6.296 60 14.0625 60H45.9375C53.704 60 60 53.704 60 45.9375V14.0625C60 6.296 53.704 0 45.9375 0Z" fill="#F0DB4F"/>
<path d="M15.7761 50.1403L20.3675 47.3616C21.2535 48.9321 22.0592 50.261 23.9921 50.261C25.8449 50.261 27.013 49.5364 27.013 46.7173V27.5459H32.6516V46.797C32.6516 52.6369 29.2283 55.2952 24.2338 55.2952C19.7232 55.2952 17.105 52.9592 15.7759 50.1399M35.7142 49.5361L40.3051 46.8781C41.5138 48.8517 43.0846 50.3016 45.8633 50.3016C48.1998 50.3016 49.6895 49.1335 49.6895 47.5224C49.6895 45.5892 48.159 44.9044 45.5813 43.7771L44.1721 43.1726C40.104 41.441 37.4054 39.266 37.4054 34.6746C37.4054 30.4456 40.6276 27.2234 45.6622 27.2234C49.2467 27.2234 51.8244 28.4721 53.6769 31.7344L49.2868 34.5537C48.32 32.8219 47.2733 32.1373 45.6622 32.1373C44.0108 32.1373 42.9636 33.1845 42.9636 34.5537C42.9636 36.2452 44.0108 36.93 46.4272 37.9775L47.8367 38.5814C52.6295 40.6357 55.3281 42.7296 55.3281 47.4417C55.3281 52.5169 51.3409 55.2957 45.9842 55.2957C40.7485 55.2957 37.3653 52.7986 35.7142 49.5361Z" fill="#323330"/>
</g>
<defs>
<clipPath id="clip0_52_398">
<rect width="60" height="60" fill="white"/>
</clipPath>
</defs>
</svg>
