<svg width="60" height="60" viewBox="0 0 60 60" fill="none" xmlns="http://www.w3.org/2000/svg">
<g clip-path="url(#clip0_52_422)">
<path d="M5.85938 0H54.1406C57.3867 0 60 2.61328 60 5.85938V54.1406C60 57.3867 57.3867 60 54.1406 60H5.85938C2.61328 60 0 57.3867 0 54.1406V5.85938C0 2.61328 2.61328 0 5.85938 0Z" fill="url(#paint0_linear_52_422)"/>
<path d="M36.7123 7.80005H49.3873C50.9454 7.80005 52.1998 9.05442 52.1998 10.6125V31.2375C52.1998 32.7957 50.9454 34.05 49.3873 34.05H36.7123C35.1542 34.05 33.8998 32.7957 33.8998 31.2375V10.6125C33.8998 9.05442 35.1542 7.80005 36.7123 7.80005ZM10.6123 7.80005H23.2873C24.8454 7.80005 26.0998 9.05442 26.0998 10.6125V46.2375C26.0998 47.7957 24.8454 49.05 23.2873 49.05H10.6123C9.05418 49.05 7.7998 47.7957 7.7998 46.2375V10.6125C7.7998 9.05442 9.05418 7.80005 10.6123 7.80005Z" fill="white"/>
</g>
<defs>
<linearGradient id="paint0_linear_52_422" x1="30" y1="0" x2="30" y2="60" gradientUnits="userSpaceOnUse">
<stop stop-color="#2684FF"/>
<stop offset="1" stop-color="#0052CC"/>
</linearGradient>
<clipPath id="clip0_52_422">
<rect width="60" height="60" fill="white"/>
</clipPath>
</defs>
</svg>
